<?xml version="1.0" encoding="UTF-8"?>
<svg version="1.1" xmlns="http://www.w3.org/2000/svg" width="192" height="192">
<path d="M0 0 C21.19228158 17.29772666 33.74755333 39.71558629 37 67 C38.33233675 91.95569222 32.26511056 117.49785324 15.3125 136.5625 C13.88837883 138.054552 12.45285099 139.53590838 11 141 C10.175 141.86625 9.35 142.7325 8.5 143.625 C7.675 144.40875 6.85 145.1925 6 146 C5.42636719 146.58007812 4.85273438 147.16015625 4.26171875 147.7578125 C-0.24819406 152.08936718 -5.05522125 155.49305619 -10.4375 158.625 C-11.01411377 158.97272461 -11.59072754 159.32044922 -12.18481445 159.67871094 C-25.90398825 167.35072318 -39.86342441 169.98262989 -55.42333984 169.72729492 C-58.13147937 169.68740456 -60.83473937 169.70676188 -63.54296875 169.73242188 C-78.07324449 169.7274666 -90.85626646 166.94638398 -103.6875 159.875 C-104.73647461 159.30640259 -104.73647461 159.30640259 -105.80664062 158.72631836 C-127.37616624 146.5774846 -143.1930315 125.51954888 -150.25390625 101.9609375 C-156.75342903 78.10113476 -154.04587794 52.11532592 -142.01171875 30.49609375 C-141.66802246 29.89909668 -141.32432617 29.30209961 -140.97021484 28.68701172 C-140.1006872 27.17507512 -139.27575909 25.63769369 -138.45703125 24.09765625 C-126.57320277 3.29331899 -104.38422365 -10.70792579 -81.68652344 -16.9050293 C-53.42064061 -23.78844717 -22.99353956 -17.88046219 0 0 Z " fill="#1C67AF" transform="translate(154,23)"/>
<path d="M0 0 C21.19228158 17.29772666 33.74755333 39.71558629 37 67 C38.33233675 91.95569222 32.26511056 117.49785324 15.3125 136.5625 C13.88837883 138.054552 12.45285099 139.53590838 11 141 C10.175 141.86625 9.35 142.7325 8.5 143.625 C7.675 144.40875 6.85 145.1925 6 146 C5.42636719 146.58007812 4.85273438 147.16015625 4.26171875 147.7578125 C-0.24819406 152.08936718 -5.05522125 155.49305619 -10.4375 158.625 C-11.01411377 158.97272461 -11.59072754 159.32044922 -12.18481445 159.67871094 C-25.90398825 167.35072318 -39.86342441 169.98262989 -55.42333984 169.72729492 C-58.13147937 169.68740456 -60.83473937 169.70676188 -63.54296875 169.73242188 C-78.07324449 169.7274666 -90.85626646 166.94638398 -103.6875 159.875 C-104.73647461 159.30640259 -104.73647461 159.30640259 -105.80664062 158.72631836 C-127.37616624 146.5774846 -143.1930315 125.51954888 -150.25390625 101.9609375 C-156.75342903 78.10113476 -154.04587794 52.11532592 -142.01171875 30.49609375 C-141.66802246 29.89909668 -141.32432617 29.30209961 -140.97021484 28.68701172 C-140.1006872 27.17507512 -139.27575909 25.63769369 -138.45703125 24.09765625 C-126.57320277 3.29331899 -104.38422365 -10.70792579 -81.68652344 -16.9050293 C-53.42064061 -23.78844717 -22.99353956 -17.88046219 0 0 Z M-87 -11 C-88.79244141 -10.36384766 -88.79244141 -10.36384766 -90.62109375 -9.71484375 C-113.42232798 -0.74918867 -130.44432116 16.75401519 -140.19091797 38.99804688 C-149.31021295 61.5623857 -148.32811164 86.46957154 -139.375 108.8125 C-138.08067693 111.8009848 -136.81314881 114.28027679 -135 117 C-132.22779314 117.44920166 -132.22779314 117.44920166 -128.91305542 117.36076355 C-127.61452637 117.36488754 -126.31599731 117.36901154 -124.9781189 117.3732605 C-123.5308207 117.3626423 -122.08352458 117.35173786 -120.63623047 117.34057617 C-119.11871355 117.33973035 -117.6011954 117.34020417 -116.0836792 117.34190369 C-111.95572329 117.34276681 -107.82802724 117.32508999 -103.70013189 117.30418181 C-99.3893041 117.28546767 -95.07847079 117.28366874 -90.76760864 117.28010559 C-82.60069554 117.27076961 -74.43390246 117.24613489 -66.26704228 117.21605712 C-56.97093818 117.18256135 -47.67482843 117.16603926 -38.37867904 117.15097082 C-19.25238456 117.11958663 -0.12620192 117.06679605 19 117 C19.96766034 115.09330415 20.93203086 113.18493847 21.89501953 111.27587891 C22.43240753 110.21333893 22.96979553 109.15079895 23.52346802 108.05606079 C32.30850967 89.87316894 33.03164624 66.71266156 27.25390625 47.52734375 C26.84011719 46.36332031 26.42632812 45.19929688 26 44 C25.36384766 42.20755859 25.36384766 42.20755859 24.71484375 40.37890625 C15.71018069 17.47846788 -1.7827476 0.65650546 -24.04980469 -9.19091797 C-43.48562824 -17.25430295 -67.14207128 -18.05913081 -87 -11 Z " fill="#010101" transform="translate(154,23)"/>
<path d="M0 0 C2.92237423 1.5532892 5.08333846 3.29558436 7 6 C7.36217934 7.32578845 7.69931334 8.65892714 8 10 C8.73114014 9.98428955 9.46228027 9.9685791 10.21557617 9.95239258 C13.5394716 9.88989649 16.8632432 9.85096248 20.1875 9.8125 C21.91323242 9.77479492 21.91323242 9.77479492 23.67382812 9.73632812 C25.34155273 9.72182617 25.34155273 9.72182617 27.04296875 9.70703125 C28.06414795 9.6913208 29.08532715 9.67561035 30.13745117 9.65942383 C33.48707631 10.05795066 35.30316765 11.00170773 38 13 C40.423238 16.634857 40.28911113 19.31240416 40.2746582 23.51318359 C40.27976913 24.27612228 40.28488007 25.03906097 40.29014587 25.82511902 C40.30405664 28.34963811 40.30308381 30.87388461 40.30078125 33.3984375 C40.3046678 35.15337221 40.30900238 36.90830598 40.31376648 38.66323853 C40.32123219 42.3435572 40.32093519 46.02377996 40.31567383 49.70410156 C40.3098833 54.4174928 40.32679831 59.13049056 40.3500185 63.84381676 C40.36476126 67.46925142 40.36562673 71.09459149 40.36250877 74.72005081 C40.36302186 76.45756432 40.36825734 78.19508315 40.37832069 79.9325676 C40.39067636 82.36464619 40.38389869 84.7959607 40.37231445 87.22802734 C40.37995819 87.94404617 40.38760193 88.660065 40.39547729 89.39778137 C40.34995822 93.72791005 40.07091927 96.82678352 37 100 C34.08177767 100.51389504 31.7361645 100.68449287 28.8125 100.64697266 C27.97807373 100.65573425 27.14364746 100.66449585 26.28393555 100.67352295 C23.52209677 100.6955535 20.76185541 100.6809519 18 100.6640625 C16.0833302 100.6674296 14.16666248 100.67228132 12.25 100.67855835 C8.23156419 100.68593462 4.21368379 100.67519995 0.1953125 100.65185547 C-4.96024785 100.62336721 -10.11450695 100.63976716 -15.27001953 100.66971779 C-19.22829017 100.68777043 -23.18625138 100.6820421 -27.14453125 100.66907883 C-29.04557448 100.66573918 -30.94664564 100.66985146 -32.84765625 100.68147659 C-35.50336291 100.6941521 -38.15695149 100.6748563 -40.8125 100.64697266 C-41.99549683 100.66215439 -41.99549683 100.66215439 -43.20239258 100.67764282 C-46.6896794 100.60967588 -48.51169027 100.50582013 -50.98547363 97.94332886 C-52.23007832 94.33250019 -52.43544029 91.03465944 -52.41992188 87.25976562 C-52.42839142 86.49653488 -52.43686096 85.73330414 -52.44558716 84.94694519 C-52.46891701 82.43320897 -52.46998045 79.92008612 -52.46875 77.40625 C-52.47585306 75.65417232 -52.48355227 73.90209697 -52.49182129 72.15002441 C-52.50525614 68.48162362 -52.50683894 64.81343802 -52.50097656 61.14501953 C-52.49507558 56.44712221 -52.52569252 51.75025659 -52.56609344 47.0525589 C-52.59195583 43.43567352 -52.59484932 39.81903724 -52.59120178 36.20207214 C-52.59289382 34.4701223 -52.6025445 32.73816106 -52.62034607 31.00630188 C-52.64251268 28.58357812 -52.63284856 26.16295167 -52.61523438 23.74023438 C-52.62849762 23.02735764 -52.64176086 22.3144809 -52.65542603 21.58000183 C-52.58899038 17.64224223 -52.1094135 16.12909207 -49.52404785 13.07873535 C-48.69111206 12.39275269 -47.85817627 11.70677002 -47 11 C-46.67 10.67 -46.34 10.34 -46 10 C-44.07332493 9.91251793 -42.14348139 9.89302666 -40.21484375 9.90234375 C-38.46010742 9.90717773 -38.46010742 9.90717773 -36.66992188 9.91210938 C-35.43822266 9.92048828 -34.20652344 9.92886719 -32.9375 9.9375 C-31.08415039 9.94426758 -31.08415039 9.94426758 -29.19335938 9.95117188 C-26.12885883 9.96300392 -23.06445279 9.97948827 -20 10 C-19.85989502 9.37512695 -19.71979004 8.75025391 -19.57543945 8.10644531 C-18.68322152 4.84040528 -16.87838041 3.30840231 -14.29296875 1.21875 C-9.71187145 -1.21617736 -4.98650868 -1.02564184 0 0 Z " fill="#FDFDFD" transform="translate(102,40)"/>
<path d="M0 0 C17.16 0 34.32 0 52 0 C52 3.63 52 7.26 52 11 C34.84 11 17.68 11 0 11 C0 7.37 0 3.74 0 0 Z " fill="#2870B4" transform="translate(70,70)"/>
<path d="M0 0 C17.16 0 34.32 0 52 0 C52 3.3 52 6.6 52 10 C34.84 10 17.68 10 0 10 C0 6.7 0 3.4 0 0 Z " fill="#1E69B0" transform="translate(70,91)"/>
<path d="M0 0 C11.88 0 23.76 0 36 0 C36 3.63 36 7.26 36 11 C24.12 11 12.24 11 0 11 C0 7.37 0 3.74 0 0 Z " fill="#256EB3" transform="translate(70,111)"/>
<path d="M0 0 C2 2 2 2 2.375 5.4375 C2 9 2 9 0.3125 10.9375 C-2.41818887 12.19214083 -4.02932151 12.45702746 -7 12 C-8.8125 10.9375 -8.8125 10.9375 -10 9 C-10.36841966 5.56141649 -10.58367385 3.09868019 -8.9375 0 C-5.80557344 -1.61647822 -3.32814714 -0.78665296 0 0 Z " fill="#E4E4E4" transform="translate(112,150)"/>
<path d="M0 0 C3 0.25 3 0.25 5 2.25 C4.625 5.875 4.625 5.875 4 9.25 C1.69 9.58 -0.62 9.91 -3 10.25 C-5.14915785 7.02626323 -5.38286803 5.98296326 -5 2.25 C-3 0.25 -3 0.25 0 0 Z " fill="#2B72B5" transform="translate(96,49.75)"/>
<path d="M0 0 C3.63 0 7.26 0 11 0 C9.21739173 3.56521654 7.24007711 6.71455357 5 10 C7.97 10.495 7.97 10.495 11 11 C11 11.66 11 12.32 11 13 C7.37 13 3.74 13 0 13 C1.70604525 8.73488687 3.09787714 6.38581001 6 3 C3.03 2.505 3.03 2.505 0 2 C0 1.34 0 0.68 0 0 Z " fill="#E5E5E5" transform="translate(78,149)"/>
<path d="M0 0 C1.32 0 2.64 0 4 0 C4 4.29 4 8.58 4 13 C2.68 13 1.36 13 0 13 C0 8.71 0 4.42 0 0 Z " fill="#BBBBBB" transform="translate(93,149)"/>
<path d="M0 0 C1.66611905 -0.042721 3.33382885 -0.04063832 5 0 C6 1 6 1 6.125 3.5 C6 6 6 6 5 7 C3.33382885 7.04063832 1.66611905 7.042721 0 7 C0 4.69 0 2.38 0 0 Z " fill="#101010" transform="translate(105,152)"/>
<path d="M0 0 C0.33 0 0.66 0 1 0 C1.3125 3.3125 1.3125 3.3125 1 7 C-1.5 8.9375 -1.5 8.9375 -4 10 C-4 9.34 -4 8.68 -4 8 C-4.99 7.67 -5.98 7.34 -7 7 C-6.38125 6.9175 -5.7625 6.835 -5.125 6.75 C-2.83911206 6.19416524 -2.83911206 6.19416524 -1.8125 4.0625 C-1.544375 3.381875 -1.27625 2.70125 -1 2 C-0.67 1.34 -0.34 0.68 0 0 Z " fill="#D2D2D2" transform="translate(113,152)"/>
<path d="M0 0 C3.63 0 7.26 0 11 0 C10.67 0.99 10.34 1.98 10 3 C6.7 2.67 3.4 2.34 0 2 C0 1.34 0 0.68 0 0 Z " fill="#EDEDED" transform="translate(78,149)"/>
<path d="M0 0 C1.66611905 -0.042721 3.33382885 -0.04063832 5 0 C6 1 6 1 6.0625 4.0625 C6.041875 5.031875 6.02125 6.00125 6 7 C5.38125 6.21625 4.7625 5.4325 4.125 4.625 C2.10141339 2.03162353 2.10141339 2.03162353 0 0 Z " fill="#F0F0F0" transform="translate(107,150)"/>
</svg>
